<?xml version="1.0" standalone="no"?>
<svg version="1.1" xmlns="http://www.w3.org/2000/svg" width="906.5882415771484" height="478">
    <svg x="225" y="319.5" width="31.117645263671875" height="135">
        <path d="M8.117645263671875,109L18.117645263671875,109Q28.117645263671875,109,28.117645263671875,99L28.117645263671875,36Q28.117645263671875,26,18.117645263671875,26L8,26L18.117645263671875,26Q28.117645263671875,26,28.117645263671875,36L28.117645263671875,99Q28.117645263671875,109,18.117645263671875,109L8.117645263671875,109L8.117645263671875,109ZM18.117645263671875,105L18.117645263671875,113M8,22L18,26L8,30"
              fill="none" stroke="#619BCC" stroke-width="2"></path>
        <text x="11.117645263671875" y="106"
              style="font-family: Open Sans, sans-serif; font-size: 14px; font-weight: normal; fill: black;">1
        </text>
        <text x="11" y="23"
              style="font-family: Open Sans, sans-serif; font-size: 14px; font-weight: normal; fill: black;">*
        </text>
    </svg>
    <svg x="225" y="24.5" width="196.02941131591797" height="182">
        <path d="M8,156L183.02941131591797,156Q193.02941131591797,156,193.02941131591797,146L193.02941131591797,36Q193.02941131591797,26,183.02941131591797,26L173.02941131591797,26L183.02941131591797,26Q193.02941131591797,26,193.02941131591797,36L193.02941131591797,146Q193.02941131591797,156,183.02941131591797,156L8,156L8,156ZM18,152L18,160M173.02941131591797,22L183.02941131591797,26L173.02941131591797,30"
              fill="none" stroke="#619BCC" stroke-width="2"></path>
        <text x="11" y="153"
              style="font-family: Open Sans, sans-serif; font-size: 14px; font-weight: normal; fill: black;">1
        </text>
        <text x="176.02941131591797" y="23"
              style="font-family: Open Sans, sans-serif; font-size: 14px; font-weight: normal; fill: black;">*
        </text>
    </svg>
    <svg x="172.64705657958984" y="24.5" width="66.9117660522461" height="85">
        <path d="M8,26L20.955883026123047,26Q30.955883026123047,26,30.955883026123047,36L30.955883026123047,49Q30.955883026123047,59,40.95588302612305,59L53.911766052246094,59L40.95588302612305,59Q30.955883026123047,59,30.955883026123047,49L30.955883026123047,36Q30.955883026123047,26,20.955883026123047,26L8,26L8,26M18,22L18,30M53.911766052246094,55L43.911766052246094,59L53.911766052246094,63"
              fill="none" stroke="#619BCC" stroke-width="2"></path>
        <text x="11" y="23"
              style="font-family: Open Sans, sans-serif; font-size: 14px; font-weight: normal; fill: black;">1
        </text>
        <text x="43.205883502960205" y="56"
              style="font-family: Open Sans, sans-serif; font-size: 14px; font-weight: normal; fill: black;">*
        </text>
    </svg>
    <svg x="624.5588226318359" y="23.5" width="85" height="85">
        <path d="M8,26L30,26Q40,26,40,36L40,49Q40,59,50,59L72,59L50,59Q40,59,40,49L40,36Q40,26,30,26L8,26L8,26M18,22L18,30M72,55L62,59L72,63"
              fill="none" stroke="#619BCC" stroke-width="2"></path>
        <text x="11" y="23"
              style="font-family: Open Sans, sans-serif; font-size: 14px; font-weight: normal; fill: black;">1
        </text>
        <text x="61.29411745071411" y="56"
              style="font-family: Open Sans, sans-serif; font-size: 14px; font-weight: normal; fill: black;">*
        </text>
    </svg>
    <svg x="624.5588226318359" y="23.5" width="85" height="118">
        <path d="M8,26L30,26Q40,26,40,36L40,82Q40,92,50,92L72,92L50,92Q40,92,40,82L40,36Q40,26,30,26L8,26L8,26M18,22L18,30M72,88L62,92L72,96"
              fill="none" stroke="#619BCC" stroke-width="2"></path>
        <text x="11" y="23"
              style="font-family: Open Sans, sans-serif; font-size: 14px; font-weight: normal; fill: black;">1
        </text>
        <text x="61.29411745071411" y="89"
              style="font-family: Open Sans, sans-serif; font-size: 14px; font-weight: normal; fill: black;">*
        </text>
    </svg>
    <svg x="624.5588226318359" y="23.5" width="32" height="305">
        <path d="M8,26L19,26Q29,26,29,36L29,269Q29,279,19,279L9,279L19,279Q29,279,29,269L29,36Q29,26,19,26L8,26L8,26ZM18,22L18,30M9,275L19,279L9,283"
              fill="none" stroke="#619BCC" stroke-width="2"></path>
        <text x="11" y="23"
              style="font-family: Open Sans, sans-serif; font-size: 14px; font-weight: normal; fill: black;">1
        </text>
        <text x="12" y="276"
              style="font-family: Open Sans, sans-serif; font-size: 14px; font-weight: normal; fill: black;">*
        </text>
    </svg>
    <svg x="225" y="154.5" width="212" height="207">
        <path d="M8,26L93.5,26Q103.5,26,103.5,36L103.5,171Q103.5,181,113.5,181L199,181L113.5,181Q103.5,181,103.5,171L103.5,36Q103.5,26,93.5,26L8,26L8,26M18,22L18,30M199,177L189,181L199,185"
              fill="none" stroke="#619BCC" stroke-width="2"></path>
        <text x="11" y="23"
              style="font-family: Open Sans, sans-serif; font-size: 14px; font-weight: normal; fill: black;">1
        </text>
        <text x="188.2941174507141" y="178"
              style="font-family: Open Sans, sans-serif; font-size: 14px; font-weight: normal; fill: black;">*
        </text>
    </svg>
    <svg x="52.47058868408203" y="379">
        <rect x="0" y="0" width="180.64705657958984" height="33" fill="#316896"></rect>
        <text x="10" y="19.75"
              style="font-family: Open Sans, sans-serif; font-size: 13px; font-weight: bold; fill: rgb(255, 255, 255);">
            mpa_ratings
        </text>
    </svg>
    <svg x="52.47058868408203" y="412">
        <rect x="0" y="0" width="180.64705657958984" height="33" fill="#DEECF3"></rect>
        <text x="10" y="19.75"
              style="font-family: Open Sans, sans-serif; font-size: 13px; font-weight: bold; fill: black;">id
        </text>
        <text x="123.88235092163086" y="19.75"
              style="font-family: Open Sans, sans-serif; font-size: 13px; font-weight: bold; fill: black;">integer
        </text>
    </svg>
    <svg x="52.47058868408203" y="445">
        <rect x="0" y="0" width="180.64705657958984" height="33" fill="#F2F2F2"></rect>
        <text x="10" y="19.75" style="font-family: Open Sans, sans-serif; font-size: 13px; fill: rgb(111, 111, 111);">
            name
        </text>
        <text x="102.29411315917969" y="19.75"
              style="font-family: Open Sans, sans-serif; font-size: 13px; fill: rgb(111, 111, 111);">varchar(10)
        </text>
    </svg>
    <svg x="0.5588226318359375" y="131">
        <rect x="0" y="0" width="232.44117736816406" height="33" fill="#316896"></rect>
        <text x="10" y="19.75"
              style="font-family: Open Sans, sans-serif; font-size: 13px; font-weight: bold; fill: rgb(255, 255, 255);">
            films
        </text>
    </svg>
    <svg x="0.5588226318359375" y="164">
        <rect x="0" y="0" width="232.44117736816406" height="33" fill="#DEECF3"></rect>
        <text x="10" y="19.75"
              style="font-family: Open Sans, sans-serif; font-size: 13px; font-weight: bold; fill: black;">id
        </text>
        <text x="175.67647171020508" y="19.75"
              style="font-family: Open Sans, sans-serif; font-size: 13px; font-weight: bold; fill: black;">integer
        </text>
    </svg>
    <svg x="0.5588226318359375" y="197">
        <rect x="0" y="0" width="232.44117736816406" height="33" fill="#F2F2F2"></rect>
        <text x="10" y="19.75" style="font-family: Open Sans, sans-serif; font-size: 13px; fill: rgb(111, 111, 111);">
            name
        </text>
        <text x="146.64705657958984" y="19.75"
              style="font-family: Open Sans, sans-serif; font-size: 13px; fill: rgb(111, 111, 111);">varchar(255)
        </text>
    </svg>
    <svg x="0.5588226318359375" y="230">
        <rect x="0" y="0" width="232.44117736816406" height="33" fill="#F2F2F2"></rect>
        <text x="10" y="19.75" style="font-family: Open Sans, sans-serif; font-size: 13px; fill: rgb(111, 111, 111);">
            description
        </text>
        <text x="146.64705657958984" y="19.75"
              style="font-family: Open Sans, sans-serif; font-size: 13px; fill: rgb(111, 111, 111);">varchar(200)
        </text>
    </svg>
    <svg x="0.5588226318359375" y="263">
        <rect x="0" y="0" width="232.44117736816406" height="33" fill="#F2F2F2"></rect>
        <text x="10" y="19.75" style="font-family: Open Sans, sans-serif; font-size: 13px; fill: rgb(111, 111, 111);">
            release_date
        </text>
        <text x="195.32353019714355" y="19.75"
              style="font-family: Open Sans, sans-serif; font-size: 13px; fill: rgb(111, 111, 111);">date
        </text>
    </svg>
    <svg x="0.5588226318359375" y="296">
        <rect x="0" y="0" width="232.44117736816406" height="33" fill="#F2F2F2"></rect>
        <text x="10" y="19.75" style="font-family: Open Sans, sans-serif; font-size: 13px; fill: rgb(111, 111, 111);">
            duration_minutes
        </text>
        <text x="179.55882263183594" y="19.75"
              style="font-family: Open Sans, sans-serif; font-size: 13px; fill: rgb(111, 111, 111);">integer
        </text>
    </svg>
    <svg x="0.5588226318359375" y="329">
        <rect x="0" y="0" width="232.44117736816406" height="33" fill="#DEECF3"></rect>
        <text x="10" y="19.75" style="font-family: Open Sans, sans-serif; font-size: 13px; fill: rgb(111, 111, 111);">
            mpa_rating_id
        </text>
        <text x="179.55882263183594" y="19.75"
              style="font-family: Open Sans, sans-serif; font-size: 13px; fill: rgb(111, 111, 111);">integer
        </text>
    </svg>
    <svg x="0" y="1">
        <rect x="0" y="0" width="180.64705657958984" height="33" fill="#316896"></rect>
        <text x="10" y="19.75"
              style="font-family: Open Sans, sans-serif; font-size: 13px; font-weight: bold; fill: rgb(255, 255, 255);">
            genres
        </text>
    </svg>
    <svg x="0" y="34">
        <rect x="0" y="0" width="180.64705657958984" height="33" fill="#DEECF3"></rect>
        <text x="10" y="19.75"
              style="font-family: Open Sans, sans-serif; font-size: 13px; font-weight: bold; fill: black;">id
        </text>
        <text x="123.88235092163086" y="19.75"
              style="font-family: Open Sans, sans-serif; font-size: 13px; font-weight: bold; fill: black;">integer
        </text>
    </svg>
    <svg x="0" y="67">
        <rect x="0" y="0" width="180.64705657958984" height="33" fill="#F2F2F2"></rect>
        <text x="10" y="19.75" style="font-family: Open Sans, sans-serif; font-size: 13px; fill: rgb(111, 111, 111);">
            name
        </text>
        <text x="102.29411315917969" y="19.75"
              style="font-family: Open Sans, sans-serif; font-size: 13px; fill: rgb(111, 111, 111);">varchar(50)
        </text>
    </svg>
    <svg x="226.55882263183594" y="1">
        <rect x="0" y="0" width="171.47058868408203" height="33" fill="#316896"></rect>
        <text x="10" y="19.75"
              style="font-family: Open Sans, sans-serif; font-size: 13px; font-weight: bold; fill: rgb(255, 255, 255);">
            film_genres
        </text>
    </svg>
    <svg x="226.55882263183594" y="34">
        <rect x="0" y="0" width="171.47058868408203" height="33" fill="#DEECF3"></rect>
        <text x="10" y="19.75"
              style="font-family: Open Sans, sans-serif; font-size: 13px; font-weight: bold; fill: black;">film_id
        </text>
        <text x="114.70588302612305" y="19.75"
              style="font-family: Open Sans, sans-serif; font-size: 13px; font-weight: bold; fill: black;">integer
        </text>
    </svg>
    <svg x="226.55882263183594" y="67">
        <rect x="0" y="0" width="171.47058868408203" height="33" fill="#DEECF3"></rect>
        <text x="10" y="19.75"
              style="font-family: Open Sans, sans-serif; font-size: 13px; font-weight: bold; fill: black;">genre_id
        </text>
        <text x="114.70588302612305" y="19.75"
              style="font-family: Open Sans, sans-serif; font-size: 13px; font-weight: bold; fill: black;">integer
        </text>
    </svg>
    <svg x="444.47058868408203" y="0">
        <rect x="0" y="0" width="188.0882339477539" height="33" fill="#316896"></rect>
        <text x="10" y="19.75"
              style="font-family: Open Sans, sans-serif; font-size: 13px; font-weight: bold; fill: rgb(255, 255, 255);">
            users
        </text>
    </svg>
    <svg x="444.47058868408203" y="33">
        <rect x="0" y="0" width="188.0882339477539" height="33" fill="#DEECF3"></rect>
        <text x="10" y="19.75"
              style="font-family: Open Sans, sans-serif; font-size: 13px; font-weight: bold; fill: black;">id
        </text>
        <text x="131.32352828979492" y="19.75"
              style="font-family: Open Sans, sans-serif; font-size: 13px; font-weight: bold; fill: black;">integer
        </text>
    </svg>
    <svg x="444.47058868408203" y="66">
        <rect x="0" y="0" width="188.0882339477539" height="33" fill="#F2F2F2"></rect>
        <text x="10" y="19.75" style="font-family: Open Sans, sans-serif; font-size: 13px; fill: rgb(111, 111, 111);">
            email
        </text>
        <text x="102.29411315917969" y="19.75"
              style="font-family: Open Sans, sans-serif; font-size: 13px; fill: rgb(111, 111, 111);">varchar(255)
        </text>
    </svg>
    <svg x="444.47058868408203" y="99">
        <rect x="0" y="0" width="188.0882339477539" height="33" fill="#F2F2F2"></rect>
        <text x="10" y="19.75" style="font-family: Open Sans, sans-serif; font-size: 13px; fill: rgb(111, 111, 111);">
            login
        </text>
        <text x="102.29411315917969" y="19.75"
              style="font-family: Open Sans, sans-serif; font-size: 13px; fill: rgb(111, 111, 111);">varchar(255)
        </text>
    </svg>
    <svg x="444.47058868408203" y="132">
        <rect x="0" y="0" width="188.0882339477539" height="33" fill="#F2F2F2"></rect>
        <text x="10" y="19.75" style="font-family: Open Sans, sans-serif; font-size: 13px; fill: rgb(111, 111, 111);">
            name
        </text>
        <text x="102.29411315917969" y="19.75"
              style="font-family: Open Sans, sans-serif; font-size: 13px; fill: rgb(111, 111, 111);">varchar(255)
        </text>
    </svg>
    <svg x="444.47058868408203" y="165">
        <rect x="0" y="0" width="188.0882339477539" height="33" fill="#F2F2F2"></rect>
        <text x="10" y="19.75" style="font-family: Open Sans, sans-serif; font-size: 13px; fill: rgb(111, 111, 111);">
            birthday
        </text>
        <text x="150.9705867767334" y="19.75"
              style="font-family: Open Sans, sans-serif; font-size: 13px; fill: rgb(111, 111, 111);">date
        </text>
    </svg>
    <svg x="696.5588226318359" y="0">
        <rect x="0" y="0" width="205.0294189453125" height="33" fill="#316896"></rect>
        <text x="10" y="19.75"
              style="font-family: Open Sans, sans-serif; font-size: 13px; font-weight: bold; fill: rgb(255, 255, 255);">
            friendship
        </text>
    </svg>
    <svg x="696.5588226318359" y="33">
        <rect x="0" y="0" width="205.0294189453125" height="33" fill="#F2F2F2"></rect>
        <text x="10" y="19.75"
              style="font-family: Open Sans, sans-serif; font-size: 13px; font-weight: bold; fill: black;">id
        </text>
        <text x="148.26471328735352" y="19.75"
              style="font-family: Open Sans, sans-serif; font-size: 13px; font-weight: bold; fill: black;">integer
        </text>
    </svg>
    <svg x="696.5588226318359" y="66">
        <rect x="0" y="0" width="205.0294189453125" height="33" fill="#DEECF3"></rect>
        <text x="10" y="19.75" style="font-family: Open Sans, sans-serif; font-size: 13px; fill: rgb(111, 111, 111);">
            from_user_id
        </text>
        <text x="152.14706420898438" y="19.75"
              style="font-family: Open Sans, sans-serif; font-size: 13px; fill: rgb(111, 111, 111);">integer
        </text>
    </svg>
    <svg x="696.5588226318359" y="99">
        <rect x="0" y="0" width="205.0294189453125" height="33" fill="#DEECF3"></rect>
        <text x="10" y="19.75" style="font-family: Open Sans, sans-serif; font-size: 13px; fill: rgb(111, 111, 111);">
            to_user_id
        </text>
        <text x="152.14706420898438" y="19.75"
              style="font-family: Open Sans, sans-serif; font-size: 13px; fill: rgb(111, 111, 111);">integer
        </text>
    </svg>
    <svg x="696.5588226318359" y="132">
        <rect x="0" y="0" width="205.0294189453125" height="33" fill="#F2F2F2"></rect>
        <text x="10" y="19.75" style="font-family: Open Sans, sans-serif; font-size: 13px; fill: rgb(111, 111, 111);">
            is_confirmed
        </text>
        <text x="145.64706420898438" y="19.75"
              style="font-family: Open Sans, sans-serif; font-size: 13px; fill: rgb(111, 111, 111);">boolean
        </text>
    </svg>
    <svg x="424" y="220">
        <rect x="0" y="0" width="209.55882263183594" height="33" fill="#316896"></rect>
        <text x="10" y="19.75"
              style="font-family: Open Sans, sans-serif; font-size: 13px; font-weight: bold; fill: rgb(255, 255, 255);">
            film_likes
        </text>
    </svg>
    <svg x="424" y="253">
        <rect x="0" y="0" width="209.55882263183594" height="33" fill="#F2F2F2"></rect>
        <text x="10" y="19.75"
              style="font-family: Open Sans, sans-serif; font-size: 13px; font-weight: bold; fill: black;">id
        </text>
        <text x="152.79411697387695" y="19.75"
              style="font-family: Open Sans, sans-serif; font-size: 13px; font-weight: bold; fill: black;">integer
        </text>
    </svg>
    <svg x="424" y="286">
        <rect x="0" y="0" width="209.55882263183594" height="33" fill="#DEECF3"></rect>
        <text x="10" y="19.75" style="font-family: Open Sans, sans-serif; font-size: 13px; fill: rgb(111, 111, 111);">
            user_id
        </text>
        <text x="156.6764678955078" y="19.75"
              style="font-family: Open Sans, sans-serif; font-size: 13px; fill: rgb(111, 111, 111);">integer
        </text>
    </svg>
    <svg x="424" y="319">
        <rect x="0" y="0" width="209.55882263183594" height="33" fill="#DEECF3"></rect>
        <text x="10" y="19.75" style="font-family: Open Sans, sans-serif; font-size: 13px; fill: rgb(111, 111, 111);">
            film_id
        </text>
        <text x="156.6764678955078" y="19.75"
              style="font-family: Open Sans, sans-serif; font-size: 13px; fill: rgb(111, 111, 111);">integer
        </text>
    </svg>
    <svg x="424" y="352">
        <rect x="0" y="0" width="209.55882263183594" height="33" fill="#F2F2F2"></rect>
        <text x="10" y="19.75" style="font-family: Open Sans, sans-serif; font-size: 13px; fill: rgb(111, 111, 111);">
            created_at
        </text>
        <text x="134.23529052734375" y="19.75"
              style="font-family: Open Sans, sans-serif; font-size: 13px; fill: rgb(111, 111, 111);">timestamp
        </text>
    </svg>
</svg>